M48
;DRILL file {KiCad 4.0.7} date Mon Mar 19 20:35:41 2018
;FORMAT={-:-/ absolute / metric / decimal}
FMAT,2
METRIC,TZ
T1C0.400
T2C0.600
T3C0.920
T4C1.020
T5C1.850
T6C2.000
%
G90
G05
M71
T1
X147.32Y-81.915
X147.701Y-82.804
X166.37Y-81.915
X168.021Y-89.154
T2
X168.91Y-78.105
X173.355Y-78.105
T3
X180.34Y-86.71
X180.34Y-88.71
X180.34Y-90.71
X180.34Y-92.71
T4
X109.131Y-102.584
X109.131Y-107.424
X111.671Y-102.584
X111.671Y-107.424
X114.211Y-102.584
X114.211Y-107.424
X116.751Y-102.584
X116.751Y-107.424
X119.291Y-102.584
X119.291Y-107.424
X121.831Y-102.584
X121.831Y-107.424
X124.371Y-102.584
X124.371Y-107.424
X126.911Y-102.584
X126.911Y-107.424
X129.451Y-102.584
X129.451Y-107.424
X131.991Y-102.584
X131.991Y-107.424
X134.531Y-102.584
X134.531Y-107.424
X137.071Y-102.584
X137.071Y-107.424
X139.611Y-102.584
X139.611Y-107.424
X142.151Y-102.584
X142.151Y-107.424
X144.691Y-102.584
X144.691Y-107.424
X147.231Y-102.584
X147.231Y-107.424
X149.771Y-102.584
X149.771Y-107.424
X152.311Y-102.584
X152.311Y-107.424
X154.851Y-102.584
X154.851Y-107.424
X157.391Y-102.584
X157.391Y-107.424
X159.931Y-102.584
X159.931Y-107.424
X162.471Y-102.584
X162.471Y-107.424
X165.011Y-102.584
X165.011Y-107.424
X167.551Y-102.584
X167.551Y-107.424
X170.091Y-102.584
X170.091Y-107.424
X172.631Y-102.584
X172.631Y-107.424
X175.171Y-102.584
X175.171Y-107.424
X177.711Y-102.584
X177.711Y-107.424
X180.251Y-102.584
X180.251Y-107.424
X182.791Y-102.584
X182.791Y-107.424
X185.331Y-102.584
X185.331Y-107.424
X187.871Y-102.584
X187.871Y-107.424
T5
X187.96Y-77.215
X187.96Y-81.915
X187.96Y-86.615
T6
X111.82Y-96.61
X120.07Y-96.61
X128.32Y-96.61
X136.57Y-96.61
X144.82Y-96.61
X153.07Y-96.61
X161.32Y-96.61
X169.57Y-96.61
T0
M30
