M48
;DRILL file {KiCad 4.0.7} date Sun Mar 11 17:31:51 2018
;FORMAT={-:-/ absolute / inch / decimal}
FMAT,2
INCH,TZ
T1C0.016
T2C0.024
T3C0.036
T4C0.040
T5C0.073
T6C0.079
T7C0.053
%
G90
G05
M72
T1
X5.8Y-3.225
X5.815Y-3.26
X6.55Y-3.225
X6.615Y-3.51
T2
X6.65Y-3.075
X6.825Y-3.075
T3
X7.1Y-3.4138
X7.1Y-3.4925
X7.1Y-3.5713
X7.1Y-3.65
T4
X4.2965Y-4.0387
X4.2965Y-4.2293
X4.3965Y-4.0387
X4.3965Y-4.2293
X4.4965Y-4.0387
X4.4965Y-4.2293
X4.5965Y-4.0387
X4.5965Y-4.2293
X4.6965Y-4.0387
X4.6965Y-4.2293
X4.7965Y-4.0387
X4.7965Y-4.2293
X4.8965Y-4.0387
X4.8965Y-4.2293
X4.9965Y-4.0387
X4.9965Y-4.2293
X5.0965Y-4.0387
X5.0965Y-4.2293
X5.1965Y-4.0387
X5.1965Y-4.2293
X5.2965Y-4.0387
X5.2965Y-4.2293
X5.3965Y-4.0387
X5.3965Y-4.2293
X5.4965Y-4.0387
X5.4965Y-4.2293
X5.5965Y-4.0387
X5.5965Y-4.2293
X5.6965Y-4.0387
X5.6965Y-4.2293
X5.7965Y-4.0387
X5.7965Y-4.2293
X5.8965Y-4.0387
X5.8965Y-4.2293
X5.9965Y-4.0387
X5.9965Y-4.2293
X6.0965Y-4.0387
X6.0965Y-4.2293
X6.1965Y-4.0387
X6.1965Y-4.2293
X6.2965Y-4.0387
X6.2965Y-4.2293
X6.3965Y-4.0387
X6.3965Y-4.2293
X6.4965Y-4.0387
X6.4965Y-4.2293
X6.5965Y-4.0387
X6.5965Y-4.2293
X6.6965Y-4.0387
X6.6965Y-4.2293
X6.7965Y-4.0387
X6.7965Y-4.2293
X6.8965Y-4.0387
X6.8965Y-4.2293
X6.9965Y-4.0387
X6.9965Y-4.2293
X7.0965Y-4.0387
X7.0965Y-4.2293
X7.1965Y-4.0387
X7.1965Y-4.2293
X7.2965Y-4.0387
X7.2965Y-4.2293
X7.3965Y-4.0387
X7.3965Y-4.2293
T5
X7.4Y-3.04
X7.4Y-3.225
X7.4Y-3.41
T6
X4.4024Y-3.8035
X4.7272Y-3.8035
X5.052Y-3.8035
X5.3768Y-3.8035
X5.7016Y-3.8035
X6.0264Y-3.8035
X6.3512Y-3.8035
X6.676Y-3.8035
T7
X6.9929Y-3.4031
X6.9929Y-3.6787
X7.2071Y-3.4031
X7.2071Y-3.6787
T0
M30
