G04 #@! TF.FileFunction,Legend,Top*
%FSLAX46Y46*%
G04 Gerber Fmt 4.6, Leading zero omitted, Abs format (unit mm)*
G04 Created by KiCad (PCBNEW 4.0.7) date Mon Mar 19 20:09:09 2018*
%MOMM*%
%LPD*%
G01*
G04 APERTURE LIST*
%ADD10C,0.100000*%
%ADD11C,0.240000*%
%ADD12C,0.400000*%
%ADD13C,0.127000*%
%ADD14C,0.150000*%
%ADD15C,0.120000*%
%ADD16C,0.152400*%
%ADD17C,0.002540*%
G04 APERTURE END LIST*
D10*
D11*
X109974287Y-87402857D02*
X109974287Y-86602857D01*
X109974287Y-86717143D02*
X110031430Y-86660000D01*
X110145716Y-86602857D01*
X110317144Y-86602857D01*
X110431430Y-86660000D01*
X110488573Y-86774286D01*
X110488573Y-87402857D01*
X110488573Y-86774286D02*
X110545716Y-86660000D01*
X110660002Y-86602857D01*
X110831430Y-86602857D01*
X110945716Y-86660000D01*
X111002859Y-86774286D01*
X111002859Y-87402857D01*
X112088573Y-87402857D02*
X112088573Y-86774286D01*
X112031430Y-86660000D01*
X111917144Y-86602857D01*
X111688573Y-86602857D01*
X111574287Y-86660000D01*
X112088573Y-87345714D02*
X111974287Y-87402857D01*
X111688573Y-87402857D01*
X111574287Y-87345714D01*
X111517144Y-87231429D01*
X111517144Y-87117143D01*
X111574287Y-87002857D01*
X111688573Y-86945714D01*
X111974287Y-86945714D01*
X112088573Y-86888571D01*
X113174287Y-87402857D02*
X113174287Y-86202857D01*
X113174287Y-87345714D02*
X113060001Y-87402857D01*
X112831430Y-87402857D01*
X112717144Y-87345714D01*
X112660001Y-87288571D01*
X112602858Y-87174286D01*
X112602858Y-86831429D01*
X112660001Y-86717143D01*
X112717144Y-86660000D01*
X112831430Y-86602857D01*
X113060001Y-86602857D01*
X113174287Y-86660000D01*
X114202858Y-87345714D02*
X114088572Y-87402857D01*
X113860001Y-87402857D01*
X113745715Y-87345714D01*
X113688572Y-87231429D01*
X113688572Y-86774286D01*
X113745715Y-86660000D01*
X113860001Y-86602857D01*
X114088572Y-86602857D01*
X114202858Y-86660000D01*
X114260001Y-86774286D01*
X114260001Y-86888571D01*
X113688572Y-87002857D01*
X115574287Y-86602857D02*
X115802858Y-87402857D01*
X116031429Y-86831429D01*
X116260001Y-87402857D01*
X116488572Y-86602857D01*
X116945715Y-87402857D02*
X116945715Y-86602857D01*
X116945715Y-86202857D02*
X116888572Y-86260000D01*
X116945715Y-86317143D01*
X117002858Y-86260000D01*
X116945715Y-86202857D01*
X116945715Y-86317143D01*
X117345716Y-86602857D02*
X117802859Y-86602857D01*
X117517144Y-86202857D02*
X117517144Y-87231429D01*
X117574287Y-87345714D01*
X117688573Y-87402857D01*
X117802859Y-87402857D01*
X118202858Y-87402857D02*
X118202858Y-86202857D01*
X118717144Y-87402857D02*
X118717144Y-86774286D01*
X118660001Y-86660000D01*
X118545715Y-86602857D01*
X118374287Y-86602857D01*
X118260001Y-86660000D01*
X118202858Y-86717143D01*
X120202858Y-87402857D02*
X120202858Y-86202857D01*
X120888573Y-87402857D02*
X120374287Y-86717143D01*
X120888573Y-86202857D02*
X120202858Y-86888571D01*
X121402858Y-87402857D02*
X121402858Y-86602857D01*
X121402858Y-86202857D02*
X121345715Y-86260000D01*
X121402858Y-86317143D01*
X121460001Y-86260000D01*
X121402858Y-86202857D01*
X121402858Y-86317143D01*
X122660002Y-87288571D02*
X122602859Y-87345714D01*
X122431430Y-87402857D01*
X122317144Y-87402857D01*
X122145716Y-87345714D01*
X122031430Y-87231429D01*
X121974287Y-87117143D01*
X121917144Y-86888571D01*
X121917144Y-86717143D01*
X121974287Y-86488571D01*
X122031430Y-86374286D01*
X122145716Y-86260000D01*
X122317144Y-86202857D01*
X122431430Y-86202857D01*
X122602859Y-86260000D01*
X122660002Y-86317143D01*
X123688573Y-87402857D02*
X123688573Y-86774286D01*
X123631430Y-86660000D01*
X123517144Y-86602857D01*
X123288573Y-86602857D01*
X123174287Y-86660000D01*
X123688573Y-87345714D02*
X123574287Y-87402857D01*
X123288573Y-87402857D01*
X123174287Y-87345714D01*
X123117144Y-87231429D01*
X123117144Y-87117143D01*
X123174287Y-87002857D01*
X123288573Y-86945714D01*
X123574287Y-86945714D01*
X123688573Y-86888571D01*
X124774287Y-87402857D02*
X124774287Y-86202857D01*
X124774287Y-87345714D02*
X124660001Y-87402857D01*
X124431430Y-87402857D01*
X124317144Y-87345714D01*
X124260001Y-87288571D01*
X124202858Y-87174286D01*
X124202858Y-86831429D01*
X124260001Y-86717143D01*
X124317144Y-86660000D01*
X124431430Y-86602857D01*
X124660001Y-86602857D01*
X124774287Y-86660000D01*
X126260001Y-87402857D02*
X126260001Y-86202857D01*
X126260001Y-86660000D02*
X126374287Y-86602857D01*
X126602858Y-86602857D01*
X126717144Y-86660000D01*
X126774287Y-86717143D01*
X126831430Y-86831429D01*
X126831430Y-87174286D01*
X126774287Y-87288571D01*
X126717144Y-87345714D01*
X126602858Y-87402857D01*
X126374287Y-87402857D01*
X126260001Y-87345714D01*
X127231430Y-86602857D02*
X127517144Y-87402857D01*
X127802858Y-86602857D02*
X127517144Y-87402857D01*
X127402858Y-87688571D01*
X127345715Y-87745714D01*
X127231430Y-87802857D01*
X129117144Y-87345714D02*
X129288573Y-87402857D01*
X129574287Y-87402857D01*
X129688573Y-87345714D01*
X129745716Y-87288571D01*
X129802859Y-87174286D01*
X129802859Y-87060000D01*
X129745716Y-86945714D01*
X129688573Y-86888571D01*
X129574287Y-86831429D01*
X129345716Y-86774286D01*
X129231430Y-86717143D01*
X129174287Y-86660000D01*
X129117144Y-86545714D01*
X129117144Y-86431429D01*
X129174287Y-86317143D01*
X129231430Y-86260000D01*
X129345716Y-86202857D01*
X129631430Y-86202857D01*
X129802859Y-86260000D01*
X130831430Y-87345714D02*
X130717144Y-87402857D01*
X130488573Y-87402857D01*
X130374287Y-87345714D01*
X130317144Y-87288571D01*
X130260001Y-87174286D01*
X130260001Y-86831429D01*
X130317144Y-86717143D01*
X130374287Y-86660000D01*
X130488573Y-86602857D01*
X130717144Y-86602857D01*
X130831430Y-86660000D01*
X131517144Y-87402857D02*
X131402858Y-87345714D01*
X131345715Y-87288571D01*
X131288572Y-87174286D01*
X131288572Y-86831429D01*
X131345715Y-86717143D01*
X131402858Y-86660000D01*
X131517144Y-86602857D01*
X131688572Y-86602857D01*
X131802858Y-86660000D01*
X131860001Y-86717143D01*
X131917144Y-86831429D01*
X131917144Y-87174286D01*
X131860001Y-87288571D01*
X131802858Y-87345714D01*
X131688572Y-87402857D01*
X131517144Y-87402857D01*
X132260001Y-86602857D02*
X132717144Y-86602857D01*
X132431429Y-86202857D02*
X132431429Y-87231429D01*
X132488572Y-87345714D01*
X132602858Y-87402857D01*
X132717144Y-87402857D01*
X132945715Y-86602857D02*
X133402858Y-86602857D01*
X133117143Y-86202857D02*
X133117143Y-87231429D01*
X133174286Y-87345714D01*
X133288572Y-87402857D01*
X133402858Y-87402857D01*
X134660000Y-87060000D02*
X135231429Y-87060000D01*
X134545715Y-87402857D02*
X134945715Y-86202857D01*
X135345715Y-87402857D01*
X135917143Y-87402857D02*
X135802857Y-87345714D01*
X135745714Y-87231429D01*
X135745714Y-86202857D01*
X136202857Y-86602857D02*
X136660000Y-86602857D01*
X136374285Y-87402857D02*
X136374285Y-86374286D01*
X136431428Y-86260000D01*
X136545714Y-86202857D01*
X136660000Y-86202857D01*
X136888571Y-86602857D02*
X137345714Y-86602857D01*
X137059999Y-86202857D02*
X137059999Y-87231429D01*
X137117142Y-87345714D01*
X137231428Y-87402857D01*
X137345714Y-87402857D01*
X138202856Y-87345714D02*
X138088570Y-87402857D01*
X137859999Y-87402857D01*
X137745713Y-87345714D01*
X137688570Y-87231429D01*
X137688570Y-86774286D01*
X137745713Y-86660000D01*
X137859999Y-86602857D01*
X138088570Y-86602857D01*
X138202856Y-86660000D01*
X138259999Y-86774286D01*
X138259999Y-86888571D01*
X137688570Y-87002857D01*
X138774284Y-87402857D02*
X138774284Y-86602857D01*
X138774284Y-86831429D02*
X138831427Y-86717143D01*
X138888570Y-86660000D01*
X139002856Y-86602857D01*
X139117141Y-86602857D01*
X117945715Y-89385714D02*
X118060001Y-89442857D01*
X118288573Y-89442857D01*
X118402858Y-89385714D01*
X118460001Y-89271429D01*
X118460001Y-89214286D01*
X118402858Y-89100000D01*
X118288573Y-89042857D01*
X118117144Y-89042857D01*
X118002858Y-88985714D01*
X117945715Y-88871429D01*
X117945715Y-88814286D01*
X118002858Y-88700000D01*
X118117144Y-88642857D01*
X118288573Y-88642857D01*
X118402858Y-88700000D01*
X119488573Y-89385714D02*
X119374287Y-89442857D01*
X119145716Y-89442857D01*
X119031430Y-89385714D01*
X118974287Y-89328571D01*
X118917144Y-89214286D01*
X118917144Y-88871429D01*
X118974287Y-88757143D01*
X119031430Y-88700000D01*
X119145716Y-88642857D01*
X119374287Y-88642857D01*
X119488573Y-88700000D01*
X120174287Y-89442857D02*
X120060001Y-89385714D01*
X120002858Y-89328571D01*
X119945715Y-89214286D01*
X119945715Y-88871429D01*
X120002858Y-88757143D01*
X120060001Y-88700000D01*
X120174287Y-88642857D01*
X120345715Y-88642857D01*
X120460001Y-88700000D01*
X120517144Y-88757143D01*
X120574287Y-88871429D01*
X120574287Y-89214286D01*
X120517144Y-89328571D01*
X120460001Y-89385714D01*
X120345715Y-89442857D01*
X120174287Y-89442857D01*
X120917144Y-88642857D02*
X121374287Y-88642857D01*
X121088572Y-88242857D02*
X121088572Y-89271429D01*
X121145715Y-89385714D01*
X121260001Y-89442857D01*
X121374287Y-89442857D01*
X121602858Y-88642857D02*
X122060001Y-88642857D01*
X121774286Y-88242857D02*
X121774286Y-89271429D01*
X121831429Y-89385714D01*
X121945715Y-89442857D01*
X122060001Y-89442857D01*
X123202857Y-88871429D02*
X123145715Y-88814286D01*
X123031429Y-88757143D01*
X122917143Y-88757143D01*
X122802857Y-88814286D01*
X122745715Y-88871429D01*
X122688572Y-88985714D01*
X122688572Y-89100000D01*
X122745715Y-89214286D01*
X122802857Y-89271429D01*
X122917143Y-89328571D01*
X123031429Y-89328571D01*
X123145715Y-89271429D01*
X123202857Y-89214286D01*
X123202857Y-88757143D02*
X123202857Y-89214286D01*
X123260000Y-89271429D01*
X123317143Y-89271429D01*
X123431429Y-89214286D01*
X123488572Y-89100000D01*
X123488572Y-88814286D01*
X123374286Y-88642857D01*
X123202857Y-88528571D01*
X122974286Y-88471429D01*
X122745715Y-88528571D01*
X122574286Y-88642857D01*
X122460000Y-88814286D01*
X122402857Y-89042857D01*
X122460000Y-89271429D01*
X122574286Y-89442857D01*
X122745715Y-89557143D01*
X122974286Y-89614286D01*
X123202857Y-89557143D01*
X123374286Y-89442857D01*
X124517143Y-89442857D02*
X124517143Y-88814286D01*
X124460000Y-88700000D01*
X124345714Y-88642857D01*
X124117143Y-88642857D01*
X124002857Y-88700000D01*
X124517143Y-89385714D02*
X124402857Y-89442857D01*
X124117143Y-89442857D01*
X124002857Y-89385714D01*
X123945714Y-89271429D01*
X123945714Y-89157143D01*
X124002857Y-89042857D01*
X124117143Y-88985714D01*
X124402857Y-88985714D01*
X124517143Y-88928571D01*
X125260000Y-89442857D02*
X125145714Y-89385714D01*
X125088571Y-89271429D01*
X125088571Y-88242857D01*
X125545714Y-88642857D02*
X126002857Y-88642857D01*
X125717142Y-89442857D02*
X125717142Y-88414286D01*
X125774285Y-88300000D01*
X125888571Y-88242857D01*
X126002857Y-88242857D01*
X126231428Y-88642857D02*
X126688571Y-88642857D01*
X126402856Y-88242857D02*
X126402856Y-89271429D01*
X126459999Y-89385714D01*
X126574285Y-89442857D01*
X126688571Y-89442857D01*
X127545713Y-89385714D02*
X127431427Y-89442857D01*
X127202856Y-89442857D01*
X127088570Y-89385714D01*
X127031427Y-89271429D01*
X127031427Y-88814286D01*
X127088570Y-88700000D01*
X127202856Y-88642857D01*
X127431427Y-88642857D01*
X127545713Y-88700000D01*
X127602856Y-88814286D01*
X127602856Y-88928571D01*
X127031427Y-89042857D01*
X128117141Y-89442857D02*
X128117141Y-88642857D01*
X128117141Y-88871429D02*
X128174284Y-88757143D01*
X128231427Y-88700000D01*
X128345713Y-88642857D01*
X128459998Y-88642857D01*
X128859998Y-89328571D02*
X128917141Y-89385714D01*
X128859998Y-89442857D01*
X128802855Y-89385714D01*
X128859998Y-89328571D01*
X128859998Y-89442857D01*
X129945713Y-88642857D02*
X129945713Y-89442857D01*
X129431427Y-88642857D02*
X129431427Y-89271429D01*
X129488570Y-89385714D01*
X129602856Y-89442857D01*
X129774284Y-89442857D01*
X129888570Y-89385714D01*
X129945713Y-89328571D01*
X130459998Y-89385714D02*
X130574284Y-89442857D01*
X130802856Y-89442857D01*
X130917141Y-89385714D01*
X130974284Y-89271429D01*
X130974284Y-89214286D01*
X130917141Y-89100000D01*
X130802856Y-89042857D01*
X130631427Y-89042857D01*
X130517141Y-88985714D01*
X130459998Y-88871429D01*
X130459998Y-88814286D01*
X130517141Y-88700000D01*
X130631427Y-88642857D01*
X130802856Y-88642857D01*
X130917141Y-88700000D01*
X118374287Y-91482857D02*
X117688572Y-91482857D01*
X118031430Y-91482857D02*
X118031430Y-90282857D01*
X117917144Y-90454286D01*
X117802858Y-90568571D01*
X117688572Y-90625714D01*
X119517144Y-91482857D02*
X118831429Y-91482857D01*
X119174287Y-91482857D02*
X119174287Y-90282857D01*
X119060001Y-90454286D01*
X118945715Y-90568571D01*
X118831429Y-90625714D01*
X120945715Y-91482857D02*
X120945715Y-90282857D01*
X121345715Y-91140000D01*
X121745715Y-90282857D01*
X121745715Y-91482857D01*
X122831430Y-91482857D02*
X122831430Y-90854286D01*
X122774287Y-90740000D01*
X122660001Y-90682857D01*
X122431430Y-90682857D01*
X122317144Y-90740000D01*
X122831430Y-91425714D02*
X122717144Y-91482857D01*
X122431430Y-91482857D01*
X122317144Y-91425714D01*
X122260001Y-91311429D01*
X122260001Y-91197143D01*
X122317144Y-91082857D01*
X122431430Y-91025714D01*
X122717144Y-91025714D01*
X122831430Y-90968571D01*
X123402858Y-91482857D02*
X123402858Y-90682857D01*
X123402858Y-90911429D02*
X123460001Y-90797143D01*
X123517144Y-90740000D01*
X123631430Y-90682857D01*
X123745715Y-90682857D01*
X124660001Y-91425714D02*
X124545715Y-91482857D01*
X124317144Y-91482857D01*
X124202858Y-91425714D01*
X124145715Y-91368571D01*
X124088572Y-91254286D01*
X124088572Y-90911429D01*
X124145715Y-90797143D01*
X124202858Y-90740000D01*
X124317144Y-90682857D01*
X124545715Y-90682857D01*
X124660001Y-90740000D01*
X125174286Y-91482857D02*
X125174286Y-90282857D01*
X125688572Y-91482857D02*
X125688572Y-90854286D01*
X125631429Y-90740000D01*
X125517143Y-90682857D01*
X125345715Y-90682857D01*
X125231429Y-90740000D01*
X125174286Y-90797143D01*
X127117143Y-90397143D02*
X127174286Y-90340000D01*
X127288572Y-90282857D01*
X127574286Y-90282857D01*
X127688572Y-90340000D01*
X127745715Y-90397143D01*
X127802858Y-90511429D01*
X127802858Y-90625714D01*
X127745715Y-90797143D01*
X127060001Y-91482857D01*
X127802858Y-91482857D01*
X128545715Y-90282857D02*
X128660000Y-90282857D01*
X128774286Y-90340000D01*
X128831429Y-90397143D01*
X128888572Y-90511429D01*
X128945715Y-90740000D01*
X128945715Y-91025714D01*
X128888572Y-91254286D01*
X128831429Y-91368571D01*
X128774286Y-91425714D01*
X128660000Y-91482857D01*
X128545715Y-91482857D01*
X128431429Y-91425714D01*
X128374286Y-91368571D01*
X128317143Y-91254286D01*
X128260000Y-91025714D01*
X128260000Y-90740000D01*
X128317143Y-90511429D01*
X128374286Y-90397143D01*
X128431429Y-90340000D01*
X128545715Y-90282857D01*
X130088572Y-91482857D02*
X129402857Y-91482857D01*
X129745715Y-91482857D02*
X129745715Y-90282857D01*
X129631429Y-90454286D01*
X129517143Y-90568571D01*
X129402857Y-90625714D01*
X130774286Y-90797143D02*
X130660000Y-90740000D01*
X130602857Y-90682857D01*
X130545714Y-90568571D01*
X130545714Y-90511429D01*
X130602857Y-90397143D01*
X130660000Y-90340000D01*
X130774286Y-90282857D01*
X131002857Y-90282857D01*
X131117143Y-90340000D01*
X131174286Y-90397143D01*
X131231429Y-90511429D01*
X131231429Y-90568571D01*
X131174286Y-90682857D01*
X131117143Y-90740000D01*
X131002857Y-90797143D01*
X130774286Y-90797143D01*
X130660000Y-90854286D01*
X130602857Y-90911429D01*
X130545714Y-91025714D01*
X130545714Y-91254286D01*
X130602857Y-91368571D01*
X130660000Y-91425714D01*
X130774286Y-91482857D01*
X131002857Y-91482857D01*
X131117143Y-91425714D01*
X131174286Y-91368571D01*
X131231429Y-91254286D01*
X131231429Y-91025714D01*
X131174286Y-90911429D01*
X131117143Y-90854286D01*
X131002857Y-90797143D01*
D12*
X115094761Y-76308333D02*
X116047142Y-76308333D01*
X114904285Y-76879762D02*
X115570952Y-74879762D01*
X116237619Y-76879762D01*
X117761428Y-76879762D02*
X117761428Y-74879762D01*
X117761428Y-76784524D02*
X117570952Y-76879762D01*
X117190000Y-76879762D01*
X116999524Y-76784524D01*
X116904285Y-76689286D01*
X116809047Y-76498810D01*
X116809047Y-75927381D01*
X116904285Y-75736905D01*
X116999524Y-75641667D01*
X117190000Y-75546429D01*
X117570952Y-75546429D01*
X117761428Y-75641667D01*
X119570952Y-76879762D02*
X119570952Y-75832143D01*
X119475714Y-75641667D01*
X119285238Y-75546429D01*
X118904286Y-75546429D01*
X118713809Y-75641667D01*
X119570952Y-76784524D02*
X119380476Y-76879762D01*
X118904286Y-76879762D01*
X118713809Y-76784524D01*
X118618571Y-76594048D01*
X118618571Y-76403571D01*
X118713809Y-76213095D01*
X118904286Y-76117857D01*
X119380476Y-76117857D01*
X119570952Y-76022619D01*
X120523333Y-75546429D02*
X120523333Y-77546429D01*
X120523333Y-75641667D02*
X120713810Y-75546429D01*
X121094762Y-75546429D01*
X121285238Y-75641667D01*
X121380476Y-75736905D01*
X121475714Y-75927381D01*
X121475714Y-76498810D01*
X121380476Y-76689286D01*
X121285238Y-76784524D01*
X121094762Y-76879762D01*
X120713810Y-76879762D01*
X120523333Y-76784524D01*
X122047143Y-75546429D02*
X122809048Y-75546429D01*
X122332857Y-74879762D02*
X122332857Y-76594048D01*
X122428096Y-76784524D01*
X122618572Y-76879762D01*
X122809048Y-76879762D01*
X124237619Y-76784524D02*
X124047143Y-76879762D01*
X123666191Y-76879762D01*
X123475714Y-76784524D01*
X123380476Y-76594048D01*
X123380476Y-75832143D01*
X123475714Y-75641667D01*
X123666191Y-75546429D01*
X124047143Y-75546429D01*
X124237619Y-75641667D01*
X124332857Y-75832143D01*
X124332857Y-76022619D01*
X123380476Y-76213095D01*
X125190000Y-76879762D02*
X125190000Y-75546429D01*
X125190000Y-75927381D02*
X125285239Y-75736905D01*
X125380477Y-75641667D01*
X125570953Y-75546429D01*
X125761429Y-75546429D01*
X127666191Y-75546429D02*
X128428096Y-75546429D01*
X127951905Y-76879762D02*
X127951905Y-75165476D01*
X128047144Y-74975000D01*
X128237620Y-74879762D01*
X128428096Y-74879762D01*
X129380477Y-76879762D02*
X129190001Y-76784524D01*
X129094762Y-76689286D01*
X128999524Y-76498810D01*
X128999524Y-75927381D01*
X129094762Y-75736905D01*
X129190001Y-75641667D01*
X129380477Y-75546429D01*
X129666191Y-75546429D01*
X129856667Y-75641667D01*
X129951905Y-75736905D01*
X130047143Y-75927381D01*
X130047143Y-76498810D01*
X129951905Y-76689286D01*
X129856667Y-76784524D01*
X129666191Y-76879762D01*
X129380477Y-76879762D01*
X130904286Y-76879762D02*
X130904286Y-75546429D01*
X130904286Y-75927381D02*
X130999525Y-75736905D01*
X131094763Y-75641667D01*
X131285239Y-75546429D01*
X131475715Y-75546429D01*
X110761427Y-80279762D02*
X110761427Y-78279762D01*
X110761427Y-79232143D02*
X111904285Y-79232143D01*
X111904285Y-80279762D02*
X111904285Y-78279762D01*
X112856665Y-80279762D02*
X112856665Y-78279762D01*
X113618570Y-78279762D01*
X113809046Y-78375000D01*
X113904285Y-78470238D01*
X113999523Y-78660714D01*
X113999523Y-78946429D01*
X113904285Y-79136905D01*
X113809046Y-79232143D01*
X113618570Y-79327381D01*
X112856665Y-79327381D01*
X117523333Y-80089286D02*
X117428095Y-80184524D01*
X117142380Y-80279762D01*
X116951904Y-80279762D01*
X116666190Y-80184524D01*
X116475714Y-79994048D01*
X116380475Y-79803571D01*
X116285237Y-79422619D01*
X116285237Y-79136905D01*
X116380475Y-78755952D01*
X116475714Y-78565476D01*
X116666190Y-78375000D01*
X116951904Y-78279762D01*
X117142380Y-78279762D01*
X117428095Y-78375000D01*
X117523333Y-78470238D01*
X118666190Y-80279762D02*
X118475714Y-80184524D01*
X118380475Y-80089286D01*
X118285237Y-79898810D01*
X118285237Y-79327381D01*
X118380475Y-79136905D01*
X118475714Y-79041667D01*
X118666190Y-78946429D01*
X118951904Y-78946429D01*
X119142380Y-79041667D01*
X119237618Y-79136905D01*
X119332856Y-79327381D01*
X119332856Y-79898810D01*
X119237618Y-80089286D01*
X119142380Y-80184524D01*
X118951904Y-80279762D01*
X118666190Y-80279762D01*
X120189999Y-80279762D02*
X120189999Y-78946429D01*
X120189999Y-79136905D02*
X120285238Y-79041667D01*
X120475714Y-78946429D01*
X120761428Y-78946429D01*
X120951904Y-79041667D01*
X121047142Y-79232143D01*
X121047142Y-80279762D01*
X121047142Y-79232143D02*
X121142380Y-79041667D01*
X121332857Y-78946429D01*
X121618571Y-78946429D01*
X121809047Y-79041667D01*
X121904285Y-79232143D01*
X121904285Y-80279762D01*
X122856666Y-80279762D02*
X122856666Y-78946429D01*
X122856666Y-79136905D02*
X122951905Y-79041667D01*
X123142381Y-78946429D01*
X123428095Y-78946429D01*
X123618571Y-79041667D01*
X123713809Y-79232143D01*
X123713809Y-80279762D01*
X123713809Y-79232143D02*
X123809047Y-79041667D01*
X123999524Y-78946429D01*
X124285238Y-78946429D01*
X124475714Y-79041667D01*
X124570952Y-79232143D01*
X124570952Y-80279762D01*
X125809048Y-80279762D02*
X125618572Y-80184524D01*
X125523333Y-80089286D01*
X125428095Y-79898810D01*
X125428095Y-79327381D01*
X125523333Y-79136905D01*
X125618572Y-79041667D01*
X125809048Y-78946429D01*
X126094762Y-78946429D01*
X126285238Y-79041667D01*
X126380476Y-79136905D01*
X126475714Y-79327381D01*
X126475714Y-79898810D01*
X126380476Y-80089286D01*
X126285238Y-80184524D01*
X126094762Y-80279762D01*
X125809048Y-80279762D01*
X127332857Y-78946429D02*
X127332857Y-80279762D01*
X127332857Y-79136905D02*
X127428096Y-79041667D01*
X127618572Y-78946429D01*
X127904286Y-78946429D01*
X128094762Y-79041667D01*
X128190000Y-79232143D01*
X128190000Y-80279762D01*
X130570953Y-80184524D02*
X130856668Y-80279762D01*
X131332858Y-80279762D01*
X131523334Y-80184524D01*
X131618572Y-80089286D01*
X131713811Y-79898810D01*
X131713811Y-79708333D01*
X131618572Y-79517857D01*
X131523334Y-79422619D01*
X131332858Y-79327381D01*
X130951906Y-79232143D01*
X130761430Y-79136905D01*
X130666191Y-79041667D01*
X130570953Y-78851190D01*
X130570953Y-78660714D01*
X130666191Y-78470238D01*
X130761430Y-78375000D01*
X130951906Y-78279762D01*
X131428096Y-78279762D01*
X131713811Y-78375000D01*
X132856668Y-80279762D02*
X132666192Y-80184524D01*
X132570953Y-79994048D01*
X132570953Y-78279762D01*
X133904287Y-80279762D02*
X133713811Y-80184524D01*
X133618572Y-80089286D01*
X133523334Y-79898810D01*
X133523334Y-79327381D01*
X133618572Y-79136905D01*
X133713811Y-79041667D01*
X133904287Y-78946429D01*
X134190001Y-78946429D01*
X134380477Y-79041667D01*
X134475715Y-79136905D01*
X134570953Y-79327381D01*
X134570953Y-79898810D01*
X134475715Y-80089286D01*
X134380477Y-80184524D01*
X134190001Y-80279762D01*
X133904287Y-80279762D01*
X135142382Y-78946429D02*
X135904287Y-78946429D01*
X135428096Y-78279762D02*
X135428096Y-79994048D01*
X135523335Y-80184524D01*
X135713811Y-80279762D01*
X135904287Y-80279762D01*
X113523332Y-83679762D02*
X113523332Y-81679762D01*
X114285237Y-81679762D01*
X114475713Y-81775000D01*
X114570952Y-81870238D01*
X114666190Y-82060714D01*
X114666190Y-82346429D01*
X114570952Y-82536905D01*
X114475713Y-82632143D01*
X114285237Y-82727381D01*
X113523332Y-82727381D01*
X115809047Y-83679762D02*
X115618571Y-83584524D01*
X115523332Y-83489286D01*
X115428094Y-83298810D01*
X115428094Y-82727381D01*
X115523332Y-82536905D01*
X115618571Y-82441667D01*
X115809047Y-82346429D01*
X116094761Y-82346429D01*
X116285237Y-82441667D01*
X116380475Y-82536905D01*
X116475713Y-82727381D01*
X116475713Y-83298810D01*
X116380475Y-83489286D01*
X116285237Y-83584524D01*
X116094761Y-83679762D01*
X115809047Y-83679762D01*
X117142380Y-82346429D02*
X117523333Y-83679762D01*
X117904285Y-82727381D01*
X118285237Y-83679762D01*
X118666190Y-82346429D01*
X120189999Y-83584524D02*
X119999523Y-83679762D01*
X119618571Y-83679762D01*
X119428094Y-83584524D01*
X119332856Y-83394048D01*
X119332856Y-82632143D01*
X119428094Y-82441667D01*
X119618571Y-82346429D01*
X119999523Y-82346429D01*
X120189999Y-82441667D01*
X120285237Y-82632143D01*
X120285237Y-82822619D01*
X119332856Y-83013095D01*
X121142380Y-83679762D02*
X121142380Y-82346429D01*
X121142380Y-82727381D02*
X121237619Y-82536905D01*
X121332857Y-82441667D01*
X121523333Y-82346429D01*
X121713809Y-82346429D01*
X123809047Y-83584524D02*
X124094762Y-83679762D01*
X124570952Y-83679762D01*
X124761428Y-83584524D01*
X124856666Y-83489286D01*
X124951905Y-83298810D01*
X124951905Y-83108333D01*
X124856666Y-82917857D01*
X124761428Y-82822619D01*
X124570952Y-82727381D01*
X124190000Y-82632143D01*
X123999524Y-82536905D01*
X123904285Y-82441667D01*
X123809047Y-82251190D01*
X123809047Y-82060714D01*
X123904285Y-81870238D01*
X123999524Y-81775000D01*
X124190000Y-81679762D01*
X124666190Y-81679762D01*
X124951905Y-81775000D01*
X126666190Y-82346429D02*
X126666190Y-83679762D01*
X125809047Y-82346429D02*
X125809047Y-83394048D01*
X125904286Y-83584524D01*
X126094762Y-83679762D01*
X126380476Y-83679762D01*
X126570952Y-83584524D01*
X126666190Y-83489286D01*
X127618571Y-82346429D02*
X127618571Y-84346429D01*
X127618571Y-82441667D02*
X127809048Y-82346429D01*
X128190000Y-82346429D01*
X128380476Y-82441667D01*
X128475714Y-82536905D01*
X128570952Y-82727381D01*
X128570952Y-83298810D01*
X128475714Y-83489286D01*
X128380476Y-83584524D01*
X128190000Y-83679762D01*
X127809048Y-83679762D01*
X127618571Y-83584524D01*
X129428095Y-82346429D02*
X129428095Y-84346429D01*
X129428095Y-82441667D02*
X129618572Y-82346429D01*
X129999524Y-82346429D01*
X130190000Y-82441667D01*
X130285238Y-82536905D01*
X130380476Y-82727381D01*
X130380476Y-83298810D01*
X130285238Y-83489286D01*
X130190000Y-83584524D01*
X129999524Y-83679762D01*
X129618572Y-83679762D01*
X129428095Y-83584524D01*
X131523334Y-83679762D02*
X131332858Y-83584524D01*
X131237619Y-83394048D01*
X131237619Y-81679762D01*
X132094762Y-82346429D02*
X132570953Y-83679762D01*
X133047143Y-82346429D02*
X132570953Y-83679762D01*
X132380477Y-84155952D01*
X132285238Y-84251190D01*
X132094762Y-84346429D01*
D13*
X105956100Y-100328600D02*
X191046100Y-100328600D01*
D14*
X191046100Y-100328600D02*
X191046100Y-109678600D01*
D13*
X191046100Y-109678600D02*
X105956100Y-109678600D01*
X105956100Y-100328600D02*
X105956100Y-109678600D01*
X191046100Y-101978600D02*
X191046100Y-108028600D01*
D15*
X168410000Y-86575000D02*
X169410000Y-86575000D01*
X169410000Y-84875000D02*
X168410000Y-84875000D01*
X144915000Y-85305000D02*
X145915000Y-85305000D01*
X145915000Y-83605000D02*
X144915000Y-83605000D01*
X144915000Y-87210000D02*
X145915000Y-87210000D01*
X145915000Y-85510000D02*
X144915000Y-85510000D01*
X158615000Y-78525000D02*
X157615000Y-78525000D01*
X157615000Y-80225000D02*
X158615000Y-80225000D01*
X168410000Y-82765000D02*
X169410000Y-82765000D01*
X169410000Y-81065000D02*
X168410000Y-81065000D01*
X168410000Y-84670000D02*
X169410000Y-84670000D01*
X169410000Y-82970000D02*
X168410000Y-82970000D01*
X168310000Y-86750000D02*
X169510000Y-86750000D01*
X169510000Y-88510000D02*
X168310000Y-88510000D01*
X169510000Y-80890000D02*
X168310000Y-80890000D01*
X168310000Y-79130000D02*
X169510000Y-79130000D01*
X146015000Y-83430000D02*
X144815000Y-83430000D01*
X144815000Y-81670000D02*
X146015000Y-81670000D01*
X186127500Y-94897500D02*
X186127500Y-93697500D01*
X187887500Y-93697500D02*
X187887500Y-94897500D01*
X186127500Y-91722500D02*
X186127500Y-90522500D01*
X187887500Y-90522500D02*
X187887500Y-91722500D01*
X188032500Y-94897500D02*
X188032500Y-93697500D01*
X189792500Y-93697500D02*
X189792500Y-94897500D01*
X188032500Y-91722500D02*
X188032500Y-90522500D01*
X189792500Y-90522500D02*
X189792500Y-91722500D01*
D16*
X151460200Y-81965800D02*
G75*
G03X152069800Y-81965800I304800J0D01*
G01*
X149644100Y-87071200D02*
X153885900Y-87071200D01*
X153885900Y-81838800D02*
X149644100Y-81838800D01*
D15*
X178470000Y-97545000D02*
X179670000Y-97545000D01*
X179670000Y-99305000D02*
X178470000Y-99305000D01*
D16*
X160320019Y-89115900D02*
X162259981Y-89115900D01*
X162259981Y-81064100D02*
X160320019Y-81064100D01*
D17*
G36*
X175854360Y-85079840D02*
X175922940Y-85044280D01*
X176070260Y-84950300D01*
X176283620Y-84813140D01*
X176532540Y-84642960D01*
X176784000Y-84472780D01*
X176992280Y-84335620D01*
X177137060Y-84241640D01*
X177198020Y-84208620D01*
X177228500Y-84221320D01*
X177350420Y-84279740D01*
X177523140Y-84368640D01*
X177622200Y-84419440D01*
X177782220Y-84490560D01*
X177860960Y-84503260D01*
X177873660Y-84480400D01*
X177932080Y-84358480D01*
X178023520Y-84152740D01*
X178145440Y-83875880D01*
X178282600Y-83553300D01*
X178429920Y-83205320D01*
X178577240Y-82852260D01*
X178716940Y-82514440D01*
X178841400Y-82209640D01*
X178940460Y-81963260D01*
X179006500Y-81790540D01*
X179029360Y-81716880D01*
X179021740Y-81701640D01*
X178943000Y-81622900D01*
X178803300Y-81518760D01*
X178503580Y-81274920D01*
X178206400Y-80906620D01*
X178026060Y-80484980D01*
X177967640Y-80017620D01*
X178018440Y-79583280D01*
X178188620Y-79166720D01*
X178478180Y-78793340D01*
X178831240Y-78513940D01*
X179242720Y-78338680D01*
X179705000Y-78282800D01*
X180146960Y-78331060D01*
X180573680Y-78498700D01*
X180947060Y-78783180D01*
X181104540Y-78966060D01*
X181322980Y-79347060D01*
X181447440Y-79753460D01*
X181460140Y-79857600D01*
X181442360Y-80302100D01*
X181310280Y-80728820D01*
X181074060Y-81112360D01*
X180748940Y-81424780D01*
X180708300Y-81455260D01*
X180555900Y-81567020D01*
X180454300Y-81645760D01*
X180375560Y-81711800D01*
X180941980Y-83078320D01*
X181033420Y-83296760D01*
X181188360Y-83670140D01*
X181325520Y-83990180D01*
X181434740Y-84246720D01*
X181510940Y-84419440D01*
X181543960Y-84488020D01*
X181549040Y-84490560D01*
X181597300Y-84500720D01*
X181703980Y-84462620D01*
X181891940Y-84368640D01*
X182018940Y-84305140D01*
X182163720Y-84234020D01*
X182229760Y-84208620D01*
X182285640Y-84239100D01*
X182425340Y-84330540D01*
X182628540Y-84465160D01*
X182872380Y-84630260D01*
X183103520Y-84790280D01*
X183319420Y-84929980D01*
X183476900Y-85031580D01*
X183550560Y-85072220D01*
X183563260Y-85072220D01*
X183631840Y-85034120D01*
X183753760Y-84929980D01*
X183939180Y-84754720D01*
X184203340Y-84495640D01*
X184243980Y-84455000D01*
X184459880Y-84234020D01*
X184635140Y-84051140D01*
X184754520Y-83919060D01*
X184795160Y-83858100D01*
X184795160Y-83858100D01*
X184757060Y-83784440D01*
X184658000Y-83629500D01*
X184515760Y-83411060D01*
X184343040Y-83157060D01*
X183890920Y-82499200D01*
X184139840Y-81879440D01*
X184216040Y-81688940D01*
X184312560Y-81457800D01*
X184386220Y-81295240D01*
X184421780Y-81221580D01*
X184490360Y-81198720D01*
X184660540Y-81158080D01*
X184904380Y-81107280D01*
X185199020Y-81051400D01*
X185478420Y-81000600D01*
X185732420Y-80952340D01*
X185915300Y-80916780D01*
X185996580Y-80901540D01*
X186016900Y-80888840D01*
X186032140Y-80848200D01*
X186044840Y-80764380D01*
X186049920Y-80609440D01*
X186052460Y-80368140D01*
X186052460Y-80017620D01*
X186052460Y-79979520D01*
X186049920Y-79644240D01*
X186044840Y-79380080D01*
X186034680Y-79204820D01*
X186024520Y-79136240D01*
X186021980Y-79136240D01*
X185943240Y-79115920D01*
X185765440Y-79077820D01*
X185511440Y-79029560D01*
X185211720Y-78971140D01*
X185191400Y-78968600D01*
X184891680Y-78910180D01*
X184640220Y-78856840D01*
X184464960Y-78816200D01*
X184388760Y-78793340D01*
X184373520Y-78773020D01*
X184312560Y-78656180D01*
X184228740Y-78468220D01*
X184127140Y-78242160D01*
X184030620Y-78005940D01*
X183944260Y-77795120D01*
X183888380Y-77635100D01*
X183870600Y-77563980D01*
X183870600Y-77561440D01*
X183916320Y-77490320D01*
X184020460Y-77335380D01*
X184167780Y-77119480D01*
X184340500Y-76862940D01*
X184355740Y-76842620D01*
X184528460Y-76588620D01*
X184668160Y-76375260D01*
X184762140Y-76222860D01*
X184795160Y-76154280D01*
X184795160Y-76149200D01*
X184739280Y-76073000D01*
X184609740Y-75928220D01*
X184424320Y-75735180D01*
X184200800Y-75511660D01*
X184129680Y-75440540D01*
X183883300Y-75201780D01*
X183713120Y-75041760D01*
X183606440Y-74957940D01*
X183555640Y-74940160D01*
X183553100Y-74942700D01*
X183476900Y-74988420D01*
X183316880Y-75092560D01*
X183098440Y-75239880D01*
X182841900Y-75415140D01*
X182821580Y-75427840D01*
X182570120Y-75598020D01*
X182356760Y-75742800D01*
X182206900Y-75841860D01*
X182140860Y-75882500D01*
X182130700Y-75882500D01*
X182026560Y-75852020D01*
X181846220Y-75788520D01*
X181625240Y-75702160D01*
X181389020Y-75608180D01*
X181175660Y-75516740D01*
X181015640Y-75443080D01*
X180939440Y-75402440D01*
X180939440Y-75397360D01*
X180911500Y-75305920D01*
X180868320Y-75117960D01*
X180814980Y-74856340D01*
X180754020Y-74543920D01*
X180746400Y-74495660D01*
X180687980Y-74190860D01*
X180639720Y-73941940D01*
X180604160Y-73769220D01*
X180586380Y-73698100D01*
X180543200Y-73687940D01*
X180395880Y-73677780D01*
X180169820Y-73672700D01*
X179898040Y-73667620D01*
X179608480Y-73670160D01*
X179329080Y-73677780D01*
X179087780Y-73685400D01*
X178917600Y-73698100D01*
X178846480Y-73710800D01*
X178843940Y-73715880D01*
X178816000Y-73809860D01*
X178775360Y-74000360D01*
X178722020Y-74261980D01*
X178661060Y-74574400D01*
X178650900Y-74630280D01*
X178595020Y-74930000D01*
X178544220Y-75178920D01*
X178506120Y-75349100D01*
X178488340Y-75415140D01*
X178460400Y-75430380D01*
X178335940Y-75483720D01*
X178132740Y-75567540D01*
X177883820Y-75669140D01*
X177302160Y-75905360D01*
X176588420Y-75415140D01*
X176524920Y-75371960D01*
X176268380Y-75196700D01*
X176057560Y-75057000D01*
X175910240Y-74963020D01*
X175849280Y-74927460D01*
X175844200Y-74930000D01*
X175773080Y-74993500D01*
X175633380Y-75125580D01*
X175440340Y-75313540D01*
X175214280Y-75537060D01*
X175049180Y-75702160D01*
X174853600Y-75902820D01*
X174729140Y-76037440D01*
X174660560Y-76123800D01*
X174635160Y-76174600D01*
X174642780Y-76210160D01*
X174688500Y-76283820D01*
X174792640Y-76438760D01*
X174939960Y-76657200D01*
X175112680Y-76908660D01*
X175254920Y-77119480D01*
X175409860Y-77358240D01*
X175511460Y-77528420D01*
X175547020Y-77612240D01*
X175536860Y-77647800D01*
X175488600Y-77787500D01*
X175402240Y-77998320D01*
X175295560Y-78249780D01*
X175049180Y-78813660D01*
X174678340Y-78884780D01*
X174454820Y-78925420D01*
X174139860Y-78986380D01*
X173840140Y-79044800D01*
X173372780Y-79136240D01*
X173355000Y-80858360D01*
X173428660Y-80888840D01*
X173497240Y-80906620D01*
X173669960Y-80944720D01*
X173918880Y-80995520D01*
X174210980Y-81048860D01*
X174459900Y-81097120D01*
X174711360Y-81142840D01*
X174891700Y-81178400D01*
X174970440Y-81196180D01*
X174990760Y-81221580D01*
X175054260Y-81343500D01*
X175143160Y-81536540D01*
X175242220Y-81770220D01*
X175343820Y-82011520D01*
X175430180Y-82232500D01*
X175493680Y-82402680D01*
X175516540Y-82489040D01*
X175480980Y-82555080D01*
X175387000Y-82702400D01*
X175247300Y-82913220D01*
X175077120Y-83162140D01*
X174906940Y-83411060D01*
X174764700Y-83624420D01*
X174663100Y-83779360D01*
X174622460Y-83847940D01*
X174642780Y-83896200D01*
X174741840Y-84015580D01*
X174929800Y-84211160D01*
X175209200Y-84488020D01*
X175254920Y-84533740D01*
X175478440Y-84747100D01*
X175666400Y-84919820D01*
X175798480Y-85036660D01*
X175854360Y-85079840D01*
X175854360Y-85079840D01*
G37*
X175854360Y-85079840D02*
X175922940Y-85044280D01*
X176070260Y-84950300D01*
X176283620Y-84813140D01*
X176532540Y-84642960D01*
X176784000Y-84472780D01*
X176992280Y-84335620D01*
X177137060Y-84241640D01*
X177198020Y-84208620D01*
X177228500Y-84221320D01*
X177350420Y-84279740D01*
X177523140Y-84368640D01*
X177622200Y-84419440D01*
X177782220Y-84490560D01*
X177860960Y-84503260D01*
X177873660Y-84480400D01*
X177932080Y-84358480D01*
X178023520Y-84152740D01*
X178145440Y-83875880D01*
X178282600Y-83553300D01*
X178429920Y-83205320D01*
X178577240Y-82852260D01*
X178716940Y-82514440D01*
X178841400Y-82209640D01*
X178940460Y-81963260D01*
X179006500Y-81790540D01*
X179029360Y-81716880D01*
X179021740Y-81701640D01*
X178943000Y-81622900D01*
X178803300Y-81518760D01*
X178503580Y-81274920D01*
X178206400Y-80906620D01*
X178026060Y-80484980D01*
X177967640Y-80017620D01*
X178018440Y-79583280D01*
X178188620Y-79166720D01*
X178478180Y-78793340D01*
X178831240Y-78513940D01*
X179242720Y-78338680D01*
X179705000Y-78282800D01*
X180146960Y-78331060D01*
X180573680Y-78498700D01*
X180947060Y-78783180D01*
X181104540Y-78966060D01*
X181322980Y-79347060D01*
X181447440Y-79753460D01*
X181460140Y-79857600D01*
X181442360Y-80302100D01*
X181310280Y-80728820D01*
X181074060Y-81112360D01*
X180748940Y-81424780D01*
X180708300Y-81455260D01*
X180555900Y-81567020D01*
X180454300Y-81645760D01*
X180375560Y-81711800D01*
X180941980Y-83078320D01*
X181033420Y-83296760D01*
X181188360Y-83670140D01*
X181325520Y-83990180D01*
X181434740Y-84246720D01*
X181510940Y-84419440D01*
X181543960Y-84488020D01*
X181549040Y-84490560D01*
X181597300Y-84500720D01*
X181703980Y-84462620D01*
X181891940Y-84368640D01*
X182018940Y-84305140D01*
X182163720Y-84234020D01*
X182229760Y-84208620D01*
X182285640Y-84239100D01*
X182425340Y-84330540D01*
X182628540Y-84465160D01*
X182872380Y-84630260D01*
X183103520Y-84790280D01*
X183319420Y-84929980D01*
X183476900Y-85031580D01*
X183550560Y-85072220D01*
X183563260Y-85072220D01*
X183631840Y-85034120D01*
X183753760Y-84929980D01*
X183939180Y-84754720D01*
X184203340Y-84495640D01*
X184243980Y-84455000D01*
X184459880Y-84234020D01*
X184635140Y-84051140D01*
X184754520Y-83919060D01*
X184795160Y-83858100D01*
X184795160Y-83858100D01*
X184757060Y-83784440D01*
X184658000Y-83629500D01*
X184515760Y-83411060D01*
X184343040Y-83157060D01*
X183890920Y-82499200D01*
X184139840Y-81879440D01*
X184216040Y-81688940D01*
X184312560Y-81457800D01*
X184386220Y-81295240D01*
X184421780Y-81221580D01*
X184490360Y-81198720D01*
X184660540Y-81158080D01*
X184904380Y-81107280D01*
X185199020Y-81051400D01*
X185478420Y-81000600D01*
X185732420Y-80952340D01*
X185915300Y-80916780D01*
X185996580Y-80901540D01*
X186016900Y-80888840D01*
X186032140Y-80848200D01*
X186044840Y-80764380D01*
X186049920Y-80609440D01*
X186052460Y-80368140D01*
X186052460Y-80017620D01*
X186052460Y-79979520D01*
X186049920Y-79644240D01*
X186044840Y-79380080D01*
X186034680Y-79204820D01*
X186024520Y-79136240D01*
X186021980Y-79136240D01*
X185943240Y-79115920D01*
X185765440Y-79077820D01*
X185511440Y-79029560D01*
X185211720Y-78971140D01*
X185191400Y-78968600D01*
X184891680Y-78910180D01*
X184640220Y-78856840D01*
X184464960Y-78816200D01*
X184388760Y-78793340D01*
X184373520Y-78773020D01*
X184312560Y-78656180D01*
X184228740Y-78468220D01*
X184127140Y-78242160D01*
X184030620Y-78005940D01*
X183944260Y-77795120D01*
X183888380Y-77635100D01*
X183870600Y-77563980D01*
X183870600Y-77561440D01*
X183916320Y-77490320D01*
X184020460Y-77335380D01*
X184167780Y-77119480D01*
X184340500Y-76862940D01*
X184355740Y-76842620D01*
X184528460Y-76588620D01*
X184668160Y-76375260D01*
X184762140Y-76222860D01*
X184795160Y-76154280D01*
X184795160Y-76149200D01*
X184739280Y-76073000D01*
X184609740Y-75928220D01*
X184424320Y-75735180D01*
X184200800Y-75511660D01*
X184129680Y-75440540D01*
X183883300Y-75201780D01*
X183713120Y-75041760D01*
X183606440Y-74957940D01*
X183555640Y-74940160D01*
X183553100Y-74942700D01*
X183476900Y-74988420D01*
X183316880Y-75092560D01*
X183098440Y-75239880D01*
X182841900Y-75415140D01*
X182821580Y-75427840D01*
X182570120Y-75598020D01*
X182356760Y-75742800D01*
X182206900Y-75841860D01*
X182140860Y-75882500D01*
X182130700Y-75882500D01*
X182026560Y-75852020D01*
X181846220Y-75788520D01*
X181625240Y-75702160D01*
X181389020Y-75608180D01*
X181175660Y-75516740D01*
X181015640Y-75443080D01*
X180939440Y-75402440D01*
X180939440Y-75397360D01*
X180911500Y-75305920D01*
X180868320Y-75117960D01*
X180814980Y-74856340D01*
X180754020Y-74543920D01*
X180746400Y-74495660D01*
X180687980Y-74190860D01*
X180639720Y-73941940D01*
X180604160Y-73769220D01*
X180586380Y-73698100D01*
X180543200Y-73687940D01*
X180395880Y-73677780D01*
X180169820Y-73672700D01*
X179898040Y-73667620D01*
X179608480Y-73670160D01*
X179329080Y-73677780D01*
X179087780Y-73685400D01*
X178917600Y-73698100D01*
X178846480Y-73710800D01*
X178843940Y-73715880D01*
X178816000Y-73809860D01*
X178775360Y-74000360D01*
X178722020Y-74261980D01*
X178661060Y-74574400D01*
X178650900Y-74630280D01*
X178595020Y-74930000D01*
X178544220Y-75178920D01*
X178506120Y-75349100D01*
X178488340Y-75415140D01*
X178460400Y-75430380D01*
X178335940Y-75483720D01*
X178132740Y-75567540D01*
X177883820Y-75669140D01*
X177302160Y-75905360D01*
X176588420Y-75415140D01*
X176524920Y-75371960D01*
X176268380Y-75196700D01*
X176057560Y-75057000D01*
X175910240Y-74963020D01*
X175849280Y-74927460D01*
X175844200Y-74930000D01*
X175773080Y-74993500D01*
X175633380Y-75125580D01*
X175440340Y-75313540D01*
X175214280Y-75537060D01*
X175049180Y-75702160D01*
X174853600Y-75902820D01*
X174729140Y-76037440D01*
X174660560Y-76123800D01*
X174635160Y-76174600D01*
X174642780Y-76210160D01*
X174688500Y-76283820D01*
X174792640Y-76438760D01*
X174939960Y-76657200D01*
X175112680Y-76908660D01*
X175254920Y-77119480D01*
X175409860Y-77358240D01*
X175511460Y-77528420D01*
X175547020Y-77612240D01*
X175536860Y-77647800D01*
X175488600Y-77787500D01*
X175402240Y-77998320D01*
X175295560Y-78249780D01*
X175049180Y-78813660D01*
X174678340Y-78884780D01*
X174454820Y-78925420D01*
X174139860Y-78986380D01*
X173840140Y-79044800D01*
X173372780Y-79136240D01*
X173355000Y-80858360D01*
X173428660Y-80888840D01*
X173497240Y-80906620D01*
X173669960Y-80944720D01*
X173918880Y-80995520D01*
X174210980Y-81048860D01*
X174459900Y-81097120D01*
X174711360Y-81142840D01*
X174891700Y-81178400D01*
X174970440Y-81196180D01*
X174990760Y-81221580D01*
X175054260Y-81343500D01*
X175143160Y-81536540D01*
X175242220Y-81770220D01*
X175343820Y-82011520D01*
X175430180Y-82232500D01*
X175493680Y-82402680D01*
X175516540Y-82489040D01*
X175480980Y-82555080D01*
X175387000Y-82702400D01*
X175247300Y-82913220D01*
X175077120Y-83162140D01*
X174906940Y-83411060D01*
X174764700Y-83624420D01*
X174663100Y-83779360D01*
X174622460Y-83847940D01*
X174642780Y-83896200D01*
X174741840Y-84015580D01*
X174929800Y-84211160D01*
X175209200Y-84488020D01*
X175254920Y-84533740D01*
X175478440Y-84747100D01*
X175666400Y-84919820D01*
X175798480Y-85036660D01*
X175854360Y-85079840D01*
D14*
X171283334Y-86082143D02*
X171235715Y-86129762D01*
X171092858Y-86177381D01*
X170997620Y-86177381D01*
X170854762Y-86129762D01*
X170759524Y-86034524D01*
X170711905Y-85939286D01*
X170664286Y-85748810D01*
X170664286Y-85605952D01*
X170711905Y-85415476D01*
X170759524Y-85320238D01*
X170854762Y-85225000D01*
X170997620Y-85177381D01*
X171092858Y-85177381D01*
X171235715Y-85225000D01*
X171283334Y-85272619D01*
X172235715Y-86177381D02*
X171664286Y-86177381D01*
X171950000Y-86177381D02*
X171950000Y-85177381D01*
X171854762Y-85320238D01*
X171759524Y-85415476D01*
X171664286Y-85463095D01*
X142708334Y-84812143D02*
X142660715Y-84859762D01*
X142517858Y-84907381D01*
X142422620Y-84907381D01*
X142279762Y-84859762D01*
X142184524Y-84764524D01*
X142136905Y-84669286D01*
X142089286Y-84478810D01*
X142089286Y-84335952D01*
X142136905Y-84145476D01*
X142184524Y-84050238D01*
X142279762Y-83955000D01*
X142422620Y-83907381D01*
X142517858Y-83907381D01*
X142660715Y-83955000D01*
X142708334Y-84002619D01*
X143089286Y-84002619D02*
X143136905Y-83955000D01*
X143232143Y-83907381D01*
X143470239Y-83907381D01*
X143565477Y-83955000D01*
X143613096Y-84002619D01*
X143660715Y-84097857D01*
X143660715Y-84193095D01*
X143613096Y-84335952D01*
X143041667Y-84907381D01*
X143660715Y-84907381D01*
X142708334Y-86717143D02*
X142660715Y-86764762D01*
X142517858Y-86812381D01*
X142422620Y-86812381D01*
X142279762Y-86764762D01*
X142184524Y-86669524D01*
X142136905Y-86574286D01*
X142089286Y-86383810D01*
X142089286Y-86240952D01*
X142136905Y-86050476D01*
X142184524Y-85955238D01*
X142279762Y-85860000D01*
X142422620Y-85812381D01*
X142517858Y-85812381D01*
X142660715Y-85860000D01*
X142708334Y-85907619D01*
X143041667Y-85812381D02*
X143660715Y-85812381D01*
X143327381Y-86193333D01*
X143470239Y-86193333D01*
X143565477Y-86240952D01*
X143613096Y-86288571D01*
X143660715Y-86383810D01*
X143660715Y-86621905D01*
X143613096Y-86717143D01*
X143565477Y-86764762D01*
X143470239Y-86812381D01*
X143184524Y-86812381D01*
X143089286Y-86764762D01*
X143041667Y-86717143D01*
X157948334Y-78232143D02*
X157900715Y-78279762D01*
X157757858Y-78327381D01*
X157662620Y-78327381D01*
X157519762Y-78279762D01*
X157424524Y-78184524D01*
X157376905Y-78089286D01*
X157329286Y-77898810D01*
X157329286Y-77755952D01*
X157376905Y-77565476D01*
X157424524Y-77470238D01*
X157519762Y-77375000D01*
X157662620Y-77327381D01*
X157757858Y-77327381D01*
X157900715Y-77375000D01*
X157948334Y-77422619D01*
X158805477Y-77660714D02*
X158805477Y-78327381D01*
X158567381Y-77279762D02*
X158329286Y-77994048D01*
X158948334Y-77994048D01*
X171283334Y-82272143D02*
X171235715Y-82319762D01*
X171092858Y-82367381D01*
X170997620Y-82367381D01*
X170854762Y-82319762D01*
X170759524Y-82224524D01*
X170711905Y-82129286D01*
X170664286Y-81938810D01*
X170664286Y-81795952D01*
X170711905Y-81605476D01*
X170759524Y-81510238D01*
X170854762Y-81415000D01*
X170997620Y-81367381D01*
X171092858Y-81367381D01*
X171235715Y-81415000D01*
X171283334Y-81462619D01*
X172188096Y-81367381D02*
X171711905Y-81367381D01*
X171664286Y-81843571D01*
X171711905Y-81795952D01*
X171807143Y-81748333D01*
X172045239Y-81748333D01*
X172140477Y-81795952D01*
X172188096Y-81843571D01*
X172235715Y-81938810D01*
X172235715Y-82176905D01*
X172188096Y-82272143D01*
X172140477Y-82319762D01*
X172045239Y-82367381D01*
X171807143Y-82367381D01*
X171711905Y-82319762D01*
X171664286Y-82272143D01*
X171283334Y-84177143D02*
X171235715Y-84224762D01*
X171092858Y-84272381D01*
X170997620Y-84272381D01*
X170854762Y-84224762D01*
X170759524Y-84129524D01*
X170711905Y-84034286D01*
X170664286Y-83843810D01*
X170664286Y-83700952D01*
X170711905Y-83510476D01*
X170759524Y-83415238D01*
X170854762Y-83320000D01*
X170997620Y-83272381D01*
X171092858Y-83272381D01*
X171235715Y-83320000D01*
X171283334Y-83367619D01*
X172140477Y-83272381D02*
X171950000Y-83272381D01*
X171854762Y-83320000D01*
X171807143Y-83367619D01*
X171711905Y-83510476D01*
X171664286Y-83700952D01*
X171664286Y-84081905D01*
X171711905Y-84177143D01*
X171759524Y-84224762D01*
X171854762Y-84272381D01*
X172045239Y-84272381D01*
X172140477Y-84224762D01*
X172188096Y-84177143D01*
X172235715Y-84081905D01*
X172235715Y-83843810D01*
X172188096Y-83748571D01*
X172140477Y-83700952D01*
X172045239Y-83653333D01*
X171854762Y-83653333D01*
X171759524Y-83700952D01*
X171711905Y-83748571D01*
X171664286Y-83843810D01*
X171283334Y-88082381D02*
X170950000Y-87606190D01*
X170711905Y-88082381D02*
X170711905Y-87082381D01*
X171092858Y-87082381D01*
X171188096Y-87130000D01*
X171235715Y-87177619D01*
X171283334Y-87272857D01*
X171283334Y-87415714D01*
X171235715Y-87510952D01*
X171188096Y-87558571D01*
X171092858Y-87606190D01*
X170711905Y-87606190D01*
X171664286Y-87177619D02*
X171711905Y-87130000D01*
X171807143Y-87082381D01*
X172045239Y-87082381D01*
X172140477Y-87130000D01*
X172188096Y-87177619D01*
X172235715Y-87272857D01*
X172235715Y-87368095D01*
X172188096Y-87510952D01*
X171616667Y-88082381D01*
X172235715Y-88082381D01*
X171283334Y-80462381D02*
X170950000Y-79986190D01*
X170711905Y-80462381D02*
X170711905Y-79462381D01*
X171092858Y-79462381D01*
X171188096Y-79510000D01*
X171235715Y-79557619D01*
X171283334Y-79652857D01*
X171283334Y-79795714D01*
X171235715Y-79890952D01*
X171188096Y-79938571D01*
X171092858Y-79986190D01*
X170711905Y-79986190D01*
X171616667Y-79462381D02*
X172235715Y-79462381D01*
X171902381Y-79843333D01*
X172045239Y-79843333D01*
X172140477Y-79890952D01*
X172188096Y-79938571D01*
X172235715Y-80033810D01*
X172235715Y-80271905D01*
X172188096Y-80367143D01*
X172140477Y-80414762D01*
X172045239Y-80462381D01*
X171759524Y-80462381D01*
X171664286Y-80414762D01*
X171616667Y-80367143D01*
X142708334Y-83002381D02*
X142375000Y-82526190D01*
X142136905Y-83002381D02*
X142136905Y-82002381D01*
X142517858Y-82002381D01*
X142613096Y-82050000D01*
X142660715Y-82097619D01*
X142708334Y-82192857D01*
X142708334Y-82335714D01*
X142660715Y-82430952D01*
X142613096Y-82478571D01*
X142517858Y-82526190D01*
X142136905Y-82526190D01*
X143565477Y-82335714D02*
X143565477Y-83002381D01*
X143327381Y-81954762D02*
X143089286Y-82669048D01*
X143708334Y-82669048D01*
X185872381Y-94146666D02*
X185396190Y-94480000D01*
X185872381Y-94718095D02*
X184872381Y-94718095D01*
X184872381Y-94337142D01*
X184920000Y-94241904D01*
X184967619Y-94194285D01*
X185062857Y-94146666D01*
X185205714Y-94146666D01*
X185300952Y-94194285D01*
X185348571Y-94241904D01*
X185396190Y-94337142D01*
X185396190Y-94718095D01*
X184872381Y-93241904D02*
X184872381Y-93718095D01*
X185348571Y-93765714D01*
X185300952Y-93718095D01*
X185253333Y-93622857D01*
X185253333Y-93384761D01*
X185300952Y-93289523D01*
X185348571Y-93241904D01*
X185443810Y-93194285D01*
X185681905Y-93194285D01*
X185777143Y-93241904D01*
X185824762Y-93289523D01*
X185872381Y-93384761D01*
X185872381Y-93622857D01*
X185824762Y-93718095D01*
X185777143Y-93765714D01*
X185872381Y-90971666D02*
X185396190Y-91305000D01*
X185872381Y-91543095D02*
X184872381Y-91543095D01*
X184872381Y-91162142D01*
X184920000Y-91066904D01*
X184967619Y-91019285D01*
X185062857Y-90971666D01*
X185205714Y-90971666D01*
X185300952Y-91019285D01*
X185348571Y-91066904D01*
X185396190Y-91162142D01*
X185396190Y-91543095D01*
X184872381Y-90114523D02*
X184872381Y-90305000D01*
X184920000Y-90400238D01*
X184967619Y-90447857D01*
X185110476Y-90543095D01*
X185300952Y-90590714D01*
X185681905Y-90590714D01*
X185777143Y-90543095D01*
X185824762Y-90495476D01*
X185872381Y-90400238D01*
X185872381Y-90209761D01*
X185824762Y-90114523D01*
X185777143Y-90066904D01*
X185681905Y-90019285D01*
X185443810Y-90019285D01*
X185348571Y-90066904D01*
X185300952Y-90114523D01*
X185253333Y-90209761D01*
X185253333Y-90400238D01*
X185300952Y-90495476D01*
X185348571Y-90543095D01*
X185443810Y-90590714D01*
X191014881Y-94464166D02*
X190538690Y-94797500D01*
X191014881Y-95035595D02*
X190014881Y-95035595D01*
X190014881Y-94654642D01*
X190062500Y-94559404D01*
X190110119Y-94511785D01*
X190205357Y-94464166D01*
X190348214Y-94464166D01*
X190443452Y-94511785D01*
X190491071Y-94559404D01*
X190538690Y-94654642D01*
X190538690Y-95035595D01*
X190014881Y-94130833D02*
X190014881Y-93464166D01*
X191014881Y-93892738D01*
X191014881Y-91289166D02*
X190538690Y-91622500D01*
X191014881Y-91860595D02*
X190014881Y-91860595D01*
X190014881Y-91479642D01*
X190062500Y-91384404D01*
X190110119Y-91336785D01*
X190205357Y-91289166D01*
X190348214Y-91289166D01*
X190443452Y-91336785D01*
X190491071Y-91384404D01*
X190538690Y-91479642D01*
X190538690Y-91860595D01*
X190443452Y-90717738D02*
X190395833Y-90812976D01*
X190348214Y-90860595D01*
X190252976Y-90908214D01*
X190205357Y-90908214D01*
X190110119Y-90860595D01*
X190062500Y-90812976D01*
X190014881Y-90717738D01*
X190014881Y-90527261D01*
X190062500Y-90432023D01*
X190110119Y-90384404D01*
X190205357Y-90336785D01*
X190252976Y-90336785D01*
X190348214Y-90384404D01*
X190395833Y-90432023D01*
X190443452Y-90527261D01*
X190443452Y-90717738D01*
X190491071Y-90812976D01*
X190538690Y-90860595D01*
X190633929Y-90908214D01*
X190824405Y-90908214D01*
X190919643Y-90860595D01*
X190967262Y-90812976D01*
X191014881Y-90717738D01*
X191014881Y-90527261D01*
X190967262Y-90432023D01*
X190919643Y-90384404D01*
X190824405Y-90336785D01*
X190633929Y-90336785D01*
X190538690Y-90384404D01*
X190491071Y-90432023D01*
X190443452Y-90527261D01*
X150749095Y-80605381D02*
X150749095Y-81414905D01*
X150796714Y-81510143D01*
X150844333Y-81557762D01*
X150939571Y-81605381D01*
X151130048Y-81605381D01*
X151225286Y-81557762D01*
X151272905Y-81510143D01*
X151320524Y-81414905D01*
X151320524Y-80605381D01*
X152320524Y-81605381D02*
X151749095Y-81605381D01*
X152034809Y-81605381D02*
X152034809Y-80605381D01*
X151939571Y-80748238D01*
X151844333Y-80843476D01*
X151749095Y-80891095D01*
X181443334Y-98877381D02*
X181110000Y-98401190D01*
X180871905Y-98877381D02*
X180871905Y-97877381D01*
X181252858Y-97877381D01*
X181348096Y-97925000D01*
X181395715Y-97972619D01*
X181443334Y-98067857D01*
X181443334Y-98210714D01*
X181395715Y-98305952D01*
X181348096Y-98353571D01*
X181252858Y-98401190D01*
X180871905Y-98401190D01*
X182395715Y-98877381D02*
X181824286Y-98877381D01*
X182110000Y-98877381D02*
X182110000Y-97877381D01*
X182014762Y-98020238D01*
X181919524Y-98115476D01*
X181824286Y-98163095D01*
X161123334Y-80462381D02*
X160647143Y-80462381D01*
X160647143Y-79462381D01*
X161980477Y-80462381D02*
X161409048Y-80462381D01*
X161694762Y-80462381D02*
X161694762Y-79462381D01*
X161599524Y-79605238D01*
X161504286Y-79700476D01*
X161409048Y-79748095D01*
M02*
