G04 #@! TF.FileFunction,Legend,Bot*
%FSLAX46Y46*%
G04 Gerber Fmt 4.6, Leading zero omitted, Abs format (unit mm)*
G04 Created by KiCad (PCBNEW 4.0.7) date Sun Mar 11 17:31:30 2018*
%MOMM*%
%LPD*%
G01*
G04 APERTURE LIST*
%ADD10C,0.100000*%
%ADD11C,0.200000*%
%ADD12C,0.600000*%
%ADD13C,0.150000*%
G04 APERTURE END LIST*
D10*
D11*
X162560000Y-83820000D02*
X173355000Y-83820000D01*
X141605000Y-83820000D02*
X152400000Y-83820000D01*
X173355000Y-85725000D02*
X173355000Y-81280000D01*
X107950000Y-83820000D02*
X117475000Y-83820000D01*
X107950000Y-81280000D02*
X107950000Y-83820000D01*
X107950000Y-85725000D02*
X107950000Y-81280000D01*
X140335000Y-83820000D02*
X130810000Y-83820000D01*
X141605000Y-81280000D02*
X141605000Y-85725000D01*
X140335000Y-85725000D02*
X140335000Y-81280000D01*
D12*
X129745714Y-84034286D02*
X127460000Y-84034286D01*
X128602857Y-85177143D02*
X128602857Y-82891429D01*
X124460000Y-85177143D02*
X126174285Y-85177143D01*
X125317143Y-85177143D02*
X125317143Y-82177143D01*
X125602857Y-82605714D01*
X125888571Y-82891429D01*
X126174285Y-83034286D01*
X123317142Y-82462857D02*
X123174285Y-82320000D01*
X122888571Y-82177143D01*
X122174285Y-82177143D01*
X121888571Y-82320000D01*
X121745714Y-82462857D01*
X121602857Y-82748571D01*
X121602857Y-83034286D01*
X121745714Y-83462857D01*
X123460000Y-85177143D01*
X121602857Y-85177143D01*
X120745714Y-82177143D02*
X119745714Y-85177143D01*
X118745714Y-82177143D01*
X159765714Y-82320000D02*
X160051428Y-82177143D01*
X160479999Y-82177143D01*
X160908571Y-82320000D01*
X161194285Y-82605714D01*
X161337142Y-82891429D01*
X161479999Y-83462857D01*
X161479999Y-83891429D01*
X161337142Y-84462857D01*
X161194285Y-84748571D01*
X160908571Y-85034286D01*
X160479999Y-85177143D01*
X160194285Y-85177143D01*
X159765714Y-85034286D01*
X159622857Y-84891429D01*
X159622857Y-83891429D01*
X160194285Y-83891429D01*
X158337142Y-85177143D02*
X158337142Y-82177143D01*
X156622857Y-85177143D01*
X156622857Y-82177143D01*
X155194285Y-85177143D02*
X155194285Y-82177143D01*
X154480000Y-82177143D01*
X154051428Y-82320000D01*
X153765714Y-82605714D01*
X153622857Y-82891429D01*
X153480000Y-83462857D01*
X153480000Y-83891429D01*
X153622857Y-84462857D01*
X153765714Y-84748571D01*
X154051428Y-85034286D01*
X154480000Y-85177143D01*
X155194285Y-85177143D01*
D10*
X183340000Y-75510000D02*
X183340000Y-76010000D01*
X183340000Y-75510000D02*
X182840000Y-75510000D01*
X177340000Y-75510000D02*
X177840000Y-75510000D01*
X177340000Y-75510000D02*
X177340000Y-76010000D01*
X177340000Y-95410000D02*
X177340000Y-94910000D01*
X177340000Y-95410000D02*
X177840000Y-95410000D01*
X183340000Y-95410000D02*
X182840000Y-95410000D01*
X183340000Y-95410000D02*
X183340000Y-94910000D01*
D13*
X174470000Y-99210000D02*
X107470000Y-99210000D01*
X174470000Y-86210000D02*
X107470000Y-86210000D01*
X174470000Y-86210000D02*
X174470000Y-99210000D01*
X107470000Y-86210000D02*
X107470000Y-99210000D01*
D10*
X191485000Y-88365000D02*
X191060000Y-88365000D01*
X191485000Y-88340000D02*
X191485000Y-87890000D01*
X191485000Y-75465000D02*
X191485000Y-75915000D01*
X191485000Y-75465000D02*
X191060000Y-75465000D01*
X184435000Y-75465000D02*
X184810000Y-75465000D01*
X184435000Y-75465000D02*
X184435000Y-75865000D01*
X184435000Y-87990000D02*
X184435000Y-88365000D01*
X184435000Y-88365000D02*
X184785000Y-88365000D01*
D13*
X180673333Y-95972381D02*
X180673333Y-96686667D01*
X180720953Y-96829524D01*
X180816191Y-96924762D01*
X180959048Y-96972381D01*
X181054286Y-96972381D01*
X180292381Y-95972381D02*
X179673333Y-95972381D01*
X180006667Y-96353333D01*
X179863809Y-96353333D01*
X179768571Y-96400952D01*
X179720952Y-96448571D01*
X179673333Y-96543810D01*
X179673333Y-96781905D01*
X179720952Y-96877143D01*
X179768571Y-96924762D01*
X179863809Y-96972381D01*
X180149524Y-96972381D01*
X180244762Y-96924762D01*
X180292381Y-96877143D01*
X172418333Y-84542381D02*
X172418333Y-85256667D01*
X172465953Y-85399524D01*
X172561191Y-85494762D01*
X172704048Y-85542381D01*
X172799286Y-85542381D01*
X171418333Y-85542381D02*
X171989762Y-85542381D01*
X171704048Y-85542381D02*
X171704048Y-84542381D01*
X171799286Y-84685238D01*
X171894524Y-84780476D01*
X171989762Y-84828095D01*
X188721905Y-89939762D02*
X188579048Y-89987381D01*
X188340952Y-89987381D01*
X188245714Y-89939762D01*
X188198095Y-89892143D01*
X188150476Y-89796905D01*
X188150476Y-89701667D01*
X188198095Y-89606429D01*
X188245714Y-89558810D01*
X188340952Y-89511190D01*
X188531429Y-89463571D01*
X188626667Y-89415952D01*
X188674286Y-89368333D01*
X188721905Y-89273095D01*
X188721905Y-89177857D01*
X188674286Y-89082619D01*
X188626667Y-89035000D01*
X188531429Y-88987381D01*
X188293333Y-88987381D01*
X188150476Y-89035000D01*
X187198095Y-89987381D02*
X187769524Y-89987381D01*
X187483810Y-89987381D02*
X187483810Y-88987381D01*
X187579048Y-89130238D01*
X187674286Y-89225476D01*
X187769524Y-89273095D01*
M02*
